<svg xmlns="http://www.w3.org/2000/svg" viewBox="0 0 127 127">
  <g transform="translate(0 47)">
    <path
      d="M87.5564 31.9033H104.352H105.284H105.363H106.059C106.144 31.9033 106.225 31.8876 106.303 31.8654C107.324 31.7912 108.908 31.5741 110.117 30.9308C111.392 30.2534 113.211 29.0117 114.296 26.0617C114.754 24.8157 115.341 22.777 115.84 20.957L115.841 20.9581C115.842 20.9532 115.849 20.9235 115.861 20.8774C116.365 19.0347 116.858 17.0724 117.282 15.3201C117.807 13.2938 118.359 11.2118 118.709 9.99561C119.781 6.28964 118.034 5.54888 115.391 4.42582L115.164 4.33052C114.52 4.05598 113.632 3.75708 112.644 3.4598L112.642 3.45547C112.584 3.43922 112.526 3.42298 112.469 3.40727C111.88 3.23075 111.259 3.05639 110.633 2.8869C108.733 2.36057 106.832 1.88514 104.921 1.47307C104.655 1.41134 104.481 1.37235 104.43 1.36043L104.422 1.36585C101.173 0.685736 97.8875 0.203267 94.5108 0.0581467C88.335 -0.207184 82.1203 0.435567 76.1358 1.98586C74.977 2.28639 73.8269 2.6102 72.6859 2.97787C70.4501 3.69751 68.2625 4.57094 66.1225 5.54238C65.5696 5.79417 64.9935 6.05409 64.4417 6.32917C64.1493 6.47591 63.8596 6.62699 63.5753 6.78781C63.3533 6.91344 62.9775 7.0461 62.8838 7.30114C62.8357 7.43164 62.847 7.57947 62.9163 7.69914L62.9553 7.76683C63.1416 8.08901 63.4681 8.00292 63.7356 7.86321C64.1293 7.6569 64.5289 7.45872 64.9307 7.26703C66.422 6.55551 67.963 5.93063 69.5074 5.34257C70.7387 4.87363 71.9863 4.44531 73.2475 4.0641C74.7658 3.60546 76.3036 3.21288 77.8545 2.88744C79.6625 2.50731 81.489 2.22032 83.3252 2.01943C85.4262 1.79146 87.5407 1.67883 89.6536 1.67288C92.054 1.66746 94.4528 1.79958 96.8392 2.05517C99.5401 2.34595 102.223 2.79376 104.875 3.37695C107.879 4.03811 110.844 4.87201 113.761 5.84724C113.903 5.89543 114.211 6.0086 114.47 6.10445L114.647 6.18026C117.267 7.29194 117.482 7.38399 116.879 9.46657C116.748 9.92305 116.546 10.6795 116.313 11.5741L116.302 11.5827C116.3 11.5871 116.275 11.6991 116.23 11.893C115.451 14.9026 114.388 19.1885 114.363 19.2876C113.792 21.3745 113.086 23.8302 112.507 25.4032C111.658 27.7165 110.306 28.6727 109.224 29.2489C107.752 30.0308 105.308 30.0888 105.284 30.0888H104.352H87.5564Z"
      fill="#E56A54"
    />
  </g>
</svg>
